<?xml version="1.0" encoding="UTF-8"?>
<svg id="Layer_1" data-name="Layer 1" xmlns="http://www.w3.org/2000/svg" viewBox="0 0 6714.08 856.22">
  <defs>
    <style>
      .cls-1 {
        font-family: PlayfairDisplaySC-Regular, 'Playfair Display SC';
        font-size: 410px;
      }

      .cls-2 {
        letter-spacing: -.02em;
      }

      .cls-3 {
        letter-spacing: -.02em;
      }

      .cls-4 {
        letter-spacing: 0em;
      }

      .cls-5 {
        fill: #a68f51;
        stroke-width: 0px;
      }

      .cls-6 {
        letter-spacing: -.07em;
      }
    </style>
  </defs>
  <path class="cls-5" d="m3371.7,77.15c-25.94-24.64-56.41-43.66-91.42-57.06s-72.41-20.09-112.17-20.09-71.53,8.06-100.5,24.19c-28.97,16.13-53.17,37.14-72.62,63.06-19.44,25.92-34.14,55.3-44.08,88.12s-14.92,66.53-14.92,101.09h38c0-28.52,4.11-57.03,12.31-85.53,8.2-28.52,20.3-54.22,36.27-77.11,15.98-22.91,36.28-41.27,60.89-55.09s52.89-20.73,84.83-20.73,57.66,11,79.67,33.03c22.03,22.02,33.03,48.58,33.03,79.67v277.4h38V150.4c0-23.34-5.67-46.25-17.03-68.72,14.72,11.23,26.39,24.84,35.05,40.84,8.66,15.98,12.98,33.06,12.98,51.22v254.35h36V156.88c11.09,18.16,19.2,37.39,24.33,57.7s7.67,40.84,7.67,61.59v151.92h38v-151.92c0-40.62-7.56-77.8-22.69-111.52s-35.66-62.89-61.59-87.52v.02h-.01Z"/>
  <path class="cls-5" d="m3417.99,428.1v151.92c0,20.75-2.55,41.28-7.67,61.59s-13.23,39.55-24.33,57.7v-271.21h-36v254.35c0,18.16-4.33,35.23-12.98,51.22-8.66,16-20.33,29.61-35.05,40.84,11.36-22.47,17.03-45.38,17.03-68.72v-277.7h-38v277.4c0,31.09-11,57.66-33.03,79.67-22.02,22.03-48.58,33.03-79.67,33.03s-60.22-6.91-84.83-20.73-44.91-32.19-60.89-55.09c-15.97-22.89-28.06-48.59-36.27-77.11-8.2-28.5-12.31-57.02-12.31-85.53h-38c0,34.56,4.98,68.27,14.92,101.09,9.94,32.82,24.64,62.2,44.08,88.12,19.45,25.92,43.66,46.94,72.62,63.06s62.47,24.19,100.5,24.19,77.16-6.69,112.17-20.09,65.48-32.42,91.42-57.06c25.94-24.62,46.47-53.8,61.59-87.52,15.12-33.72,22.69-70.89,22.69-111.52v-151.92h-38v.02h.01Z"/>
  <path class="cls-5" d="m3879.09,87.25c-19.45-25.92-43.66-46.94-72.62-63.06s-62.47-24.19-100.5-24.19-77.16,6.69-112.17,20.09c-35.01,13.4-65.48,32.42-91.42,57.06-25.94,24.62-46.47,53.8-61.59,87.52s-22.69,70.89-22.69,111.52v151.92h38v-151.92c0-20.75,2.55-41.28,7.67-61.59s13.23-39.55,24.33-57.7v271.21h36v-254.35c0-18.16,4.33-35.23,12.98-51.22,8.66-16,20.33-29.61,35.05-40.84-11.36,22.47-17.03,45.38-17.03,68.72v277.7h38V150.72c0-31.09,11-57.66,33.03-79.67,22.02-22.03,48.58-33.03,79.67-33.03s60.22,6.91,84.83,20.73c24.61,13.82,44.91,32.19,60.89,55.09,15.97,22.89,28.06,48.59,36.27,77.11,8.2,28.5,12.31,57.02,12.31,85.53h38c0-34.56-4.98-68.27-14.92-101.09s-24.64-62.2-44.08-88.12v-.02h0Z"/>
  <path class="cls-5" d="m3555.09,428.1v277.7c0,23.34,5.67,46.25,17.03,68.72-14.72-11.23-26.39-24.84-35.05-40.84-8.66-15.98-12.98-33.06-12.98-51.22v-254.35h-36v271.21c-11.09-18.16-19.2-37.39-24.33-57.7s-7.67-40.84-7.67-61.59v-151.92h-38v151.92c0,40.62,7.56,77.8,22.69,111.52s35.66,62.89,61.59,87.52c25.94,24.64,56.41,43.66,91.42,57.06s72.41,20.09,112.17,20.09,71.53-8.06,100.5-24.19,53.17-37.14,72.62-63.06c19.44-25.92,34.14-55.3,44.08-88.12s14.92-66.53,14.92-101.09h-38c0,28.52-4.11,57.03-12.31,85.53-8.2,28.52-20.3,54.22-36.27,77.11-15.98,22.91-36.28,41.27-60.89,55.09s-52.89,20.73-84.83,20.73-57.66-11-79.67-33.03c-22.03-22.02-33.03-48.58-33.03-79.67v-277.4h-38v-.02h.01Z"/>
  <text class="cls-1" transform="translate(779.61 573.15)"><tspan x="0" y="0">C</tspan><tspan class="cls-3" x="282.08" y="0">A</tspan><tspan x="532.18" y="0">MER</tspan><tspan class="cls-4" x="1404.65" y="0">O</tspan><tspan x="1705.18" y="0" xml:space="preserve">N             C</tspan><tspan class="cls-3" x="3603.84" y="0">A</tspan><tspan x="3853.94" y="0">R</tspan><tspan class="cls-6" x="4119.62" y="0">L</tspan><tspan class="cls-2" x="4332" y="0">Y</tspan><tspan class="cls-4" x="4564.88" y="0">O</tspan><tspan x="4865.41" y="0">N</tspan></text>
</svg>