<svg width="376" height="349" viewBox="0 0 376 349" fill="none" xmlns="http://www.w3.org/2000/svg">
<g opacity="0.603097">
<path fill-rule="evenodd" clip-rule="evenodd" d="M205.672 44.1185H170.354C170.354 44.1185 176.025 0.721564 188.191 0C200.77 0.824644 205.672 44.1185 205.672 44.1185ZM170.592 44.1194V44.1186H205.854L205.652 87.9533L210.748 96.0713L277.363 148.745L367.192 214.29C367.192 214.29 373.227 220.621 374.814 225.329C376.401 230.037 375.784 239.786 375.784 239.786L241.862 183.598L205.314 173.768V251.264L205.286 251.264C205.277 253.773 205.171 261.4 204.243 267.196L204.235 267.284C204.182 267.843 204.07 268.526 203.906 269.309C203.364 272.718 202.348 279.098 201.056 286.634C201.679 287.602 202.358 288.424 203.017 288.764C218.782 299.93 250.5 323.582 250.5 323.582C250.5 323.582 252.532 325.312 253.812 327.955C255.091 330.598 258.431 348.371 258.431 348.371L193.505 324.396C191.56 332.036 189.671 337.288 188.148 337.288C186.624 337.288 184.661 332.032 182.624 324.388L116.547 348.674C116.547 348.674 119.948 331.761 121.228 329.118C122.508 326.475 124.54 324.745 124.54 324.745L174.571 287.496L174.769 286.891C173.072 277.284 171.881 269.509 171.671 267.289L171.659 267.166C170.735 261.373 170.629 253.765 170.621 251.259L170.592 251.259V173.771L134.043 183.601L0.117899 239.79C0.117899 239.79 -0.498611 230.041 1.08804 225.333C2.67469 220.625 8.71056 214.294 8.71056 214.294L98.5409 148.748L165.157 96.0732L170.254 87.9549L170.052 44.1194H170.592Z" fill="#F7F7F7"/>
<path opacity="0.714342" fill-rule="evenodd" clip-rule="evenodd" d="M196.244 13.4174C196.394 13.1609 196.474 12.8932 196.474 12.6179C196.474 11.1512 194.217 9.89939 191.041 9.4083V13.0592C192.237 13.4674 193.321 14.117 194.232 14.9496C194.406 14.8731 194.571 14.7934 194.728 14.7107L196.244 13.4174ZM188.056 9.18628C189.031 9.18628 189.966 9.25377 190.837 9.3779H189.912V12.7539C189.325 12.6351 188.717 12.5728 188.095 12.5728C187.422 12.5728 186.766 12.6456 186.135 12.7838V9.3779H185.276C186.147 9.25377 187.082 9.18628 188.056 9.18628ZM185.006 13.1091C183.855 13.5232 182.813 14.162 181.933 14.9722C180.511 14.3577 179.639 13.5293 179.639 12.6179C179.639 11.1613 181.865 9.91669 185.006 9.41858V13.1091Z" fill="white"/>
<path d="M250.109 103.331C250.109 103.331 265.329 103.383 265.329 103.331C268.103 108.813 267.388 128.87 267.219 132.785C267.203 133.163 266.893 133.451 266.515 133.451H249.202C248.837 133.451 248.532 133.184 248.502 132.819C248.209 129.289 246.963 111.846 250.109 103.331Z" fill="#F7F7F7"/>
<path d="M263.008 133.174L261.391 137.17L255.339 133.174H263.008Z" fill="#F7F7F7"/>
<path opacity="0.714342" d="M257.323 111.23H258.757L259.404 136.176L256.725 134.692L257.323 111.23Z" fill="#F7F7F7"/>
<path d="M272.797 170.712L274.034 164.145L271.56 163.702L272.797 170.712Z" fill="#F7F7F7"/>
<path d="M270.663 206.256L272.775 195.671L268.551 194.615L270.663 206.256Z" fill="#F7F7F7"/>
<path d="M251.308 194.615L253.42 184.03L249.196 182.973L251.308 194.615Z" fill="#F7F7F7"/>
<path d="M232.876 188.794L234.989 178.209L230.764 177.152L232.876 188.794Z" fill="#F7F7F7"/>
<path d="M290.758 214.849L292.87 204.264L288.646 203.207L290.758 214.849Z" fill="#F7F7F7"/>
<path d="M309.651 222.194L311.763 211.609L307.539 210.552L309.651 222.194Z" fill="#F7F7F7"/>
<path d="M124.549 103.829C124.549 103.829 109.329 103.88 109.329 103.829C106.555 109.311 107.27 129.368 107.439 133.283C107.455 133.661 107.766 133.949 108.143 133.949H125.456C125.822 133.949 126.126 133.682 126.156 133.317C126.449 129.786 127.695 112.344 124.549 103.829Z" fill="#F7F7F7"/>
<path d="M111.651 133.671L113.267 137.667L119.319 133.671H111.651Z" fill="#F7F7F7"/>
<path opacity="0.714342" d="M117.336 111.728H115.901L115.254 136.674L117.933 135.189L117.336 111.728Z" fill="#F7F7F7"/>
<path d="M101.861 171.21L100.624 164.643L103.098 164.2L101.861 171.21Z" fill="#F7F7F7"/>
<path d="M103.995 206.754L101.883 196.169L106.107 195.112L103.995 206.754Z" fill="#F7F7F7"/>
<path d="M123.35 195.113L121.238 184.527L125.462 183.471L123.35 195.113Z" fill="#F7F7F7"/>
<path d="M141.782 189.292L139.669 178.707L143.894 177.65L141.782 189.292Z" fill="#F7F7F7"/>
<path d="M83.9009 215.346L81.7886 204.761L86.0132 203.705L83.9009 215.346Z" fill="#F7F7F7"/>
<path d="M65.0078 222.692L62.8955 212.107L67.1201 211.05L65.0078 222.692Z" fill="#F7F7F7"/>
<path opacity="0.714342" d="M165.282 175.156V161.389L132.091 170.005L21.619 225.256V230.499L132.091 184.372L165.282 175.156Z" fill="#F7F7F7"/>
<rect x="173.282" y="20.7827" width="29.7935" height="259.24" rx="14.8968" fill="white"/>
</g>
</svg>
