<?xml version="1.0" encoding="UTF-8"?>
<svg id="Layer_1" data-name="Layer 1" xmlns="http://www.w3.org/2000/svg" viewBox="0 0 175.75 120.97">
  <defs>
    <style>
      .cls-1 {
        fill: #fff;
        fill-rule: evenodd;
      }
    </style>
  </defs>
  <path class="cls-1" d="M98.65,7.15c-.5,.52-2.25,3.17-2.25,6.45,0,.79,.01,19.61,0,20.28-.03,1.43-.9,3.47-1.62,4.19-.51,.51-3.63,3.35-3.91,3.64l1.77,.03c.58-.55,6.59-5.88,7.22-6.6,.82-.93,2.77-3.29,2.77-6.99V8.66c0-2.92,1.36-4.55,2.06-5.33,.72-.8,3.09-2.78,3.51-3.23l-1.86-.06c-.45,.45-7.08,6.44-7.7,7.08h0v.03Z"/>
  <path class="cls-1" d="M83.76,80.89l7.36,6.43h4.93c5.01,0,9.6-2.15,12.62-5.17,3.03-3.03,4.14-7.09,4.14-10.89v-10.54c0-3.54-2.23-5.6-2.84-6.22-.34-.34-2.48-2.36-2.48-2.36v8.09s2.36,2.44,2.83,2.93c2.18,2.32,2.16,6.54-4.75,13.28-1.21,1.18-4.67,4.44-9.42,4.44h-12.39Z"/>
  <path class="cls-1" d="M104.24,37.63c-.82,.87-1.61,2.99-1.61,4.86v3.99h4.05c1.57,0,3.65-1.43,4.1-2.19,.03-.06,0-3.96,0-3.96,0,0,1.04,1.49,2.16,2.27,.42-.53,4.11-5,7.19-5.03,5.15-.04,3.99,6.46,1.88,8.54-.68,.67-3.73,3.46-4.67,4.36-2.43,2.32-6.6,1.21-6.6-4.78,0,0-4.47,4.24-5.14,4.81-.67,.56-2.98,3.01-2.98,3.01v10.52c0,5.04-1.66,6.74-3.04,8.25-.53,.59-6.21,5.77-6.97,6.33l-1.86,.04s3.32-3.02,3.99-3.71c.76-.79,1.64-2.38,1.64-5.05,0-.67-.08-16.53-.08-16.53h-25.84c-8.99,0-10.91-9.97-10.96-12.64-.01-.79,0-8.75,0-9.99,0-1.64-1.05-4.41-2.72-5.26h2.53c.29,.12,1.88,.77,1.88,6.88,0,0-.11,7.12-.11,7.5,0,3.1,2.46,6.66,6.03,6.66,.73,0,29.24-.03,29.24-.03,.03-.79,.81-3.77,2.22-5.35,.8-.89,7.07-6.63,7.79-7.18l1.86-.02c-.28,.26-3.31,2.98-3.99,3.69h0Zm9.6,6s1.69,2.25,2.5,2.89c3.15,2.53,4.64-.19,2.53-3.09-.84-1.14-4.08-.81-5.03,.2h0Z"/>
  <path class="cls-1" d="M82.49,62.46c0,1.41-4.51,5.16-4.77,5.42-.33-1.52-1.46-3.2-4.83-6.57l4.94-4.94c3.31,3.31,4.67,4.02,4.67,6.08h-.01Z"/>
  <path class="cls-1" d="M91.04,5.88c.99,.99,3.12,3.68,1.84,4.96-1.13,1.13-2.88,2.92-2.88,2.92-.09-.65-1.73-2.2-1.73-2.2,0,0,.01,4.77,0,5.36-.06,2.15-.87,2.77-.87,2.77,0,0,3.98,3.95,3.98,9.01,0,2.46,.01,4.72,.01,5.21,0,1.04-.26,1.84-.99,2.64-.36,.4-4.04,4.1-4.61,4.61-1.07,.96-2.19,1.12-3.03,1.12h-13.71c-2.16,0-4.38-1.68-4.38-3.37,0-.42,.03-5.08,.03-5.08,.7,.81,1.42,1.77,3.15,1.74,1.35-.02,2.77-1.08,3.15-1.46,.39-.4,10.37-10.83,10.37-10.83,0,0-4.67-4.33-7.75-6.39-1.5-1.01-3.5,.26-3.8,1.59-.94,4.15,0,10.37,0,10.37,0,0-3.05-3.04-3.78-3.78-1.52-1.53-1.47-4.98,.35-6.8,.29-.29,3.05-3.42,6.57-3.42h5.47c3.67,0,7.69,3.66,7.69,3.66,0,0,.59-.65,.59-1.27,0-1.88-.07-6.96-.07-6.96-2.76-2.76-3.14-5.61-1.82-6.94,2.47-2.47,3.37-3.34,3.37-3.34,0,0-.03,3,2.85,5.88h0Zm-17.2,27.54c-1.35,1.42-1.59,1.77-2.85,2.53h15.44c4.18,0,3.35-2.6,2.6-3.91-1.54-2.69-6.4-7.68-6.4-7.68,0,0-8.51,8.76-8.79,9.06h0Z"/>
  <path class="cls-1" d="M56.24,47.48h-2.53s2.72,1.5,2.72,5.35v12.32c0,8.02,6.61,15.43,14.65,15.43h6.71c4.03,0,5.44-.98,7.88-3.14,.89-.79,2.05-2.1,2.48-2.57,1.4-1.57,2.9-2.84,2.9-6.97v-4.03c0-3.49-2.02-4.94-2.99-5.91-.63-.63-2.34-2.27-2.34-2.27v8.26s1.69,1.8,2.44,2.39c3.49,2.75,.71,7.53-2.52,7.53-.65,0-13.84,0-14.74,.03-5.43,.13-12.76-4.71-12.76-12.85v-6.7c0-6.88-1.88-6.88-1.88-6.88h-.02Z"/>
  <path class="cls-1" d="M72.4,62.48c0,1.41-4.51,5.16-4.77,5.42-.32-1.52-1.46-3.2-4.83-6.57l4.94-4.94c3.31,3.31,4.67,4.01,4.67,6.08h-.01Z"/>
  <path class="cls-1" d="M20.79,117.28h-7.9c-2.49,0-2.3-2.07-2.52-3.83v-11.33s1.73-.04,3.69-.04c2.19,0,4.91-.32,7.56,1.18,0,0-1.91-4.6-7.58-4.6h-3.67v-3.63s0-3.16-.77-4.1c0,0,4.88,.02,5.22,.02,4.52,0,8.01-.07,11.63,2.35,0,0-.69-5.97-9.42-5.97H0s2.96,2.53,2.87,7.68l.08,20.64c0,5.18,2.07,5.32,2.07,5.32H21.82c3.81,0,5.13-2.72,5.13-4.19l.06-1.98s-1.21,2.49-6.22,2.49h0Z"/>
  <path class="cls-1" d="M65.48,115.54v-14.44c0-5.6-4.58-7.09-7.99-7.09-4.51,0-5.87,3.77-6.44,5.07-1.01-3.51-4.52-5.11-7.41-5.11-5.45,0-6.84,5.19-6.84,5.19,0,0-.13-5.01-4.51-5.01h-4.29s2.48,1.03,2.48,5.36v16.03c0,5.29,2.13,5.39,2.13,5.39h7.07c-.18-.09-2.71-2-2.71-5.43v-14.22c.09-.63,1.16-2.78,4.21-2.78,1.73,0,3.63,1.8,3.58,3.83v13.21c0,5.37,2.1,5.39,2.1,5.39h7.1s-2.71-1.91-2.71-5.43l-.02-14.23c.27-.79,1.2-2.72,3.88-2.72,2.13,0,3.92,1.8,3.88,3.83,0,0-.01,12.06,0,13.18,.03,5.41,2.11,5.36,2.11,5.36,3.7,0,7.1,0,7.1,0,0,0-2.71-1.87-2.71-5.38h-.01Z"/>
  <path class="cls-1" d="M77.88,115.53c0,3.56,2.72,5.39,2.72,5.39,0,0-3.38,0-7.07,0,0,0-2.17,.03-2.17-5.33v-16.1c0-4.24-2.45-5.33-2.45-5.33h4.29c1.51,0,4.66,0,4.66,6v15.39h.02Z"/>
  <path class="cls-1" d="M99.66,96.16s-.68-1.93-3.62-1.93c-4.44,0-5.52,5.28-5.52,5.28-.36-4.17-1.48-5.4-4.61-5.4h-4.29s2.49,1.03,2.49,5.36v16.05c0,5.3,2.13,5.38,2.13,5.38h7.07c-.18-.09-2.71-2-2.71-5.43v-13.14c.19-1.19,.81-2.11,1.74-2.71,2.33-1.51,5.51-1.15,7.33,1.07v-4.54h0Z"/>
  <path class="cls-1" d="M132.66,97.13c2.39,0,4.18,1.05,4.18,1.05l.02-4.04h-5.95v-6.13s-1.56,2.7-4.76,5.33c-2.01,1.65-6.22,3.69-6.22,3.69l4.49,.08v18.63c0,5.17,2.15,5.17,2.15,5.17,3.88,0,7.06,0,7.06,0,0,0-2.73-1.83-2.73-5.23v-18.57c1.87,0,.59,0,1.75,0h0Z"/>
  <path class="cls-1" d="M154.16,105.22c-3.97,4.15-7.08,3.5-9.57,6.54,0,0,.4,4.12,3.55,5.57,1.08,.5,5.44,2.07,8.27-2.81l-.02,4.32s-1.82,2.11-7.58,2.11c-6.95,0-11.7-5.46-11.7-12.87s3.88-14.05,11.2-14.08c7.18-.04,11.06,5.76,5.85,11.22h0Zm-4.34-1.7c1.18-2.17,2.1-7.68-1.91-7.38-4.65,.35-3.76,12.71-3.76,12.71,1.56-1.69,3.89-2.03,5.68-5.33h0Z"/>
  <path class="cls-1" d="M74.59,91.97c1.82,0,3.3-1.45,3.3-3.23s-1.48-3.23-3.3-3.23-3.3,1.45-3.3,3.23,1.48,3.23,3.3,3.23h0Z"/>
  <path class="cls-1" d="M107.03,117.88c-1.61,0-2.77-1.68-2.77-3.4,0-6.68,5.47-7.61,6.94-9.39v11.27c-.63,.58-1.29,1.52-4.17,1.52h0Zm4.17-15.37c-1.65,2.88-14.44,3.49-12.48,13.39,.78,3.92,3.39,5.07,6.68,5.07s5.12-1.67,5.92-3.22c.48,2.98,1.98,3.15,1.98,3.15,3.7,0,7.07,0,7.07,0,0,0-2.75-1.83-2.75-5.36v-15.05c0-3.6-3.99-6.4-8.23-6.4s-6.64,1.96-6.64,1.96v4.67s1.45-3.7,5.14-3.7,3.87,1.79,3.84,2.69c0,0,.36,1.21-.54,2.78h0Z"/>
  <path class="cls-1" d="M169.81,113.65c.04,1.89-1.65,4.38-5.26,4.38s-5.16-3.77-5.16-3.77v4.78s2.66,1.9,6.74,1.9c4.84,0,9.73-3.68,9.62-8.8-.04-1.8-.68-3.33-1.66-4.66-1.64-2.19-4.62-3.73-6.92-5.15-1.32-.81-2.02-2.26-2.03-2.77-.04-.9,.4-2.71,4-2.71s5.01,3.7,5.01,3.7v-4.48s-2.7-2.13-6.78-2.13-8.09,2.8-8.02,6.4c.07,3.16,1.4,5.21,3.98,7.13,1.02,.76,2.24,1.5,3.65,2.29,2.06,1.14,2.81,2.54,2.83,3.89h0Z"/>
</svg>